<svg width="32" height="32" viewBox="0 0 32 32" fill="none" xmlns="http://www.w3.org/2000/svg">
<rect width="32" height="32" rx="16" fill="#1D2939"/>
<path d="M16 30C23.732 30 30 23.732 30 16C30 8.26801 23.732 2 16 2C8.26801 2 2 8.26801 2 16C2 23.732 8.26801 30 16 30Z" fill="#1D2939"/>
<path d="M19.2919 17.9321L19.7442 15.0583H16.9148V13.1942C16.9148 12.4078 17.3093 11.6408 18.5766 11.6408H19.8637V9.19417C19.8637 9.19417 18.6961 9 17.5803 9C15.2491 9 13.7268 10.3767 13.7268 12.8679V15.0583H11.1365V17.9321H13.7268V24.8796C14.2468 24.9593 14.7788 25 15.3208 25C15.8627 25 16.3948 24.9593 16.9148 24.8796V17.9321H19.2919Z" fill="white"/>
</svg>
