<svg width="32" height="32" viewBox="0 0 32 32" fill="none" xmlns="http://www.w3.org/2000/svg">
<g clip-path="url(#clip0_3144_14238)">
<rect width="32" height="32" rx="16" fill="#1D2939"/>
<mask id="mask0_3144_14238" style="mask-type:luminance" maskUnits="userSpaceOnUse" x="0" y="0" width="32" height="32">
<path d="M26 0H6C2.68629 0 0 2.68629 0 6V26C0 29.3137 2.68629 32 6 32H26C29.3137 32 32 29.3137 32 26V6C32 2.68629 29.3137 0 26 0Z" fill="white"/>
</mask>
<g mask="url(#mask0_3144_14238)">
<path d="M8.25 4H23.75C24.3083 3.99946 24.8612 4.11184 25.377 4.33071C25.8929 4.54958 26.3616 4.87064 26.7563 5.27551C27.1511 5.68039 27.4642 6.16113 27.6776 6.69023C27.8909 7.21933 28.0005 7.7864 28 8.35898V23.641C28.0005 24.2136 27.8909 24.7807 27.6776 25.3097C27.4642 25.8389 27.1511 26.3196 26.7563 26.7245C26.3616 27.1294 25.8929 27.4504 25.377 27.6693C24.8612 27.8882 24.3083 28.0005 23.75 28H8.25C7.69173 28.0005 7.13885 27.8882 6.62297 27.6693C6.1071 27.4504 5.63837 27.1294 5.24363 26.7245C4.84887 26.3196 4.53584 25.8389 4.32244 25.3097C4.10905 24.7807 3.99948 24.2136 4 23.641V8.35898C3.99948 7.7864 4.10905 7.21933 4.32244 6.69023C4.53584 6.16113 4.84887 5.68039 5.24363 5.27551C5.63837 4.87064 6.1071 4.54958 6.62297 4.33071C7.13885 4.11184 7.69173 3.99946 8.25 4Z" fill="#1D2939"/>
<path d="M13.4997 23.6922C14.8805 23.6922 15.9998 22.5442 15.9998 21.1281V18.564H13.4997C12.119 18.564 10.9998 19.712 10.9998 21.1281C10.9998 22.5442 12.119 23.6922 13.4997 23.6922Z" fill="white"/>
<path d="M10.9998 16.0001C10.9998 14.584 12.119 13.436 13.4997 13.436H15.9998V18.5642H13.4997C12.119 18.5642 10.9998 17.4162 10.9998 16.0001Z" fill="white" fill-opacity="0.8"/>
<path d="M10.9998 10.8717C10.9998 9.4556 12.119 8.30762 13.4997 8.30762H15.9998V13.4359H13.4997C12.119 13.4359 10.9998 12.2878 10.9998 10.8717Z" fill="white"/>
<path d="M16 8.30762H18.5C19.8807 8.30762 21 9.4556 21 10.8717C21 12.2878 19.8807 13.4359 18.5 13.4359H16V8.30762Z" fill="white" fill-opacity="0.5"/>
<path d="M21 16.0001C21 17.4162 19.8807 18.5642 18.5 18.5642C17.1193 18.5642 16 17.4162 16 16.0001C16 14.584 17.1193 13.436 18.5 13.436C19.8807 13.436 21 14.584 21 16.0001Z" fill="white"/>
</g>
</g>
<defs>
<clipPath id="clip0_3144_14238">
<rect width="32" height="32" rx="16" fill="white"/>
</clipPath>
</defs>
</svg>
