<svg width="32" height="32" viewBox="0 0 32 32" fill="none" xmlns="http://www.w3.org/2000/svg">
<rect width="32" height="32" rx="16" fill="#1D2939"/>
<circle cx="16" cy="16" r="13" fill="#1D2939"/>
<path d="M19.1086 11.2951C21.3947 9.70179 22.4053 10.0253 22.4193 10.03C23.0814 11.7271 22.66 12.9924 22.5396 13.3009C23.307 14.1649 23.774 15.2603 23.774 16.618C23.774 21.3545 20.9597 22.4036 18.2811 22.7122C18.7175 23.0979 19.0941 23.8386 19.0941 24.9956C19.0941 26.6465 19.0787 27.974 19.0787 28.3905C19.0788 28.4629 19.0915 28.538 19.1158 28.6102C18.1427 28.8641 17.1218 29 16.0691 29C15.026 29 14.0139 28.8669 13.0487 28.6175C13.0752 28.5435 13.0894 28.4661 13.0894 28.3905C13.0894 28.0974 13.0749 27.1253 13.0749 26.0917C10.0503 26.6626 9.26702 25.3354 9.02625 24.6412C8.8908 24.2863 8.30437 23.1908 7.79275 22.8976C7.37146 22.6662 6.76963 22.0956 7.77738 22.0801C8.7254 22.0646 9.40282 22.9749 9.62854 23.3453C10.7119 25.2117 12.4422 24.6875 13.1346 24.3635C13.2399 23.5612 13.5563 23.0208 13.9024 22.7122C11.2238 22.4036 8.42488 21.3391 8.42488 16.618C8.42492 15.2758 8.89105 14.1649 9.65838 13.3009C9.53792 12.9921 9.11665 11.7268 9.77865 10.03C9.77865 10.03 10.7872 9.70613 13.0894 11.2951C14.0524 11.0174 15.0758 10.8791 16.099 10.8791C17.1221 10.8791 18.1456 11.0175 19.1086 11.2951Z" fill="#F9FAFB"/>
</svg>
